<svg xmlns="http://www.w3.org/2000/svg" viewBox="0 0 32 32" role="img" aria-label="WhatsApp">
  <path fill="#ffffff" d="M19.11 17.44c-.27-.14-1.6-.79-1.85-.88-.25-.09-.43-.14-.61.14-.18.27-.7.88-.86 1.06-.16.18-.31.2-.58.07-.27-.14-1.12-.41-2.14-1.31-.79-.7-1.33-1.56-1.48-1.83-.16-.27-.02-.41.12-.55.12-.12.27-.31.41-.47.14-.16.18-.27.27-.45.09-.18.05-.34-.02-.47-.07-.14-.61-1.48-.84-2.03-.22-.53-.45-.45-.61-.46-.16-.01-.34-.01-.52-.01-.18 0-.47.07-.72.34-.25.27-.95.93-.95 2.27s.97 2.63 1.11 2.81c.14.18 1.9 2.9 4.61 4.06.64.28 1.14.45 1.53.58.64.2 1.23.17 1.69.1.52-.08 1.6-.65 1.83-1.28.23-.63.23-1.17.16-1.28-.07-.11-.25-.18-.52-.32z"/>
  <path fill="#ffffff" d="M16.01 5.33c-5.88 0-10.66 4.78-10.66 10.66 0 1.88.49 3.72 1.43 5.34l-1.52 5.34 5.47-1.43c1.56.85 3.32 1.3 5.27 1.3h.01c5.88 0 10.66-4.78 10.66-10.66S21.89 5.33 16.01 5.33zm0 19.4h-.01c-1.66 0-3.28-.45-4.69-1.29l-.34-.2-3.24.85.86-3.16-.22-.33a8.81 8.81 0 0 1-1.36-4.71c0-4.86 3.95-8.81 8.81-8.81 2.35 0 4.57.92 6.23 2.58a8.74 8.74 0 0 1 2.58 6.23c0 4.86-3.95 8.81-8.81 8.81z"/>
</svg>
